<svg width="15" height="15" viewBox="0 0 15 15" fill="none" xmlns="http://www.w3.org/2000/svg">
<path d="M13.513 6.96596H2.662L7.862 1.80596C7.90701 1.76275 7.94282 1.71089 7.96728 1.6535C7.99175 1.5961 8.00436 1.53435 8.00436 1.47196C8.00436 1.40957 7.99175 1.34782 7.96728 1.29043C7.94282 1.23303 7.90701 1.18117 7.862 1.13796C7.76938 1.04817 7.64492 0.998787 7.51593 1.00066C7.38694 1.00254 7.26397 1.05551 7.174 1.14796L1.143 7.18296C1.05136 7.27519 0.999944 7.39994 1 7.52996C0.999963 7.59405 1.01258 7.65751 1.03712 7.71671C1.06165 7.77592 1.09764 7.82969 1.143 7.87496L7.175 13.908C7.22014 13.9532 7.27376 13.9891 7.33279 14.0136C7.39182 14.0381 7.4551 14.0507 7.519 14.0507C7.58291 14.0507 7.64618 14.0381 7.70521 14.0136C7.76424 13.9891 7.81786 13.9532 7.863 13.908C7.90814 13.8635 7.94399 13.8105 7.96846 13.752C7.99292 13.6936 8.00553 13.6308 8.00553 13.5675C8.00553 13.5041 7.99292 13.4414 7.96846 13.3829C7.94399 13.3244 7.90814 13.2714 7.863 13.227L2.663 8.03396H13.513C13.6461 8.02109 13.7696 7.95911 13.8595 7.86011C13.9494 7.76111 13.9992 7.63218 13.9992 7.49846C13.9992 7.36474 13.9494 7.23582 13.8595 7.13682C13.7696 7.03782 13.6461 6.97584 13.513 6.96296V6.96596Z" fill="#8E8E93" stroke="#8E8E93"/>
</svg>
